<?xml version="1.0" standalone="no"?>
<!DOCTYPE svg PUBLIC "-//W3C//DTD SVG 20010904//EN"
 "http://www.w3.org/TR/2001/REC-SVG-20010904/DTD/svg10.dtd">
<svg version="1.0" xmlns="http://www.w3.org/2000/svg"
 width="320.000000pt" height="320.000000pt" viewBox="0 0 320.000000 320.000000"
 preserveAspectRatio="xMidYMid meet">
<metadata>
Created by potrace 1.14, written by Peter Selinger 2001-2017
</metadata>
<g transform="translate(0.000000,320.000000) scale(0.100000,-0.100000)"
fill="#000000" stroke="none">
<path d="M2928 2435 c-2 -2 -23 -6 -48 -9 -87 -10 -124 -19 -270 -61 -30 -9
-62 -18 -70 -20 -24 -6 -228 -81 -297 -108 l-62 -25 -38 30 c-57 45 -182 124
-191 119 -1 -1 -19 6 -40 15 -20 8 -45 18 -54 20 -41 9 -55 13 -96 22 -50 12
-317 5 -317 -8 0 -1 -10 -3 -23 -6 -12 -2 -50 -13 -84 -25 -270 -91 -475 -309
-550 -588 -15 -56 -21 -111 -23 -214 -1 -75 -4 -139 -6 -140 -2 -2 -58 -41
-124 -87 -103 -71 -185 -134 -339 -260 -59 -48 -169 -166 -204 -218 -24 -36
-36 -67 -40 -100 -4 -44 -2 -51 27 -75 18 -15 50 -29 76 -32 55 -9 169 1 255
21 14 3 35 8 47 10 28 5 275 84 288 92 6 4 16 7 22 8 21 3 247 96 257 105 16
15 49 10 81 -12 53 -36 178 -90 250 -108 134 -33 345 -33 429 -1 14 5 26 8 26
6 0 -17 238 90 267 120 8 8 19 14 24 14 15 0 164 152 195 200 16 25 31 47 35
50 7 6 63 125 77 165 25 69 44 170 46 250 3 70 6 88 22 100 10 8 24 15 31 15
6 0 13 4 15 8 2 5 32 28 68 52 283 190 495 381 553 497 54 110 7 171 -138 177
-41 2 -76 2 -77 1z m-316 -315 c27 -33 -2 -89 -99 -186 -82 -83 -103 -97 -103
-71 0 19 -57 134 -91 184 l-30 42 33 14 c18 7 60 19 93 26 33 7 65 14 70 16 6
1 33 1 60 -1 36 -2 55 -9 67 -24z m-1802 -842 c0 -7 22 -57 50 -112 27 -54 48
-102 45 -106 -3 -4 -19 -11 -37 -14 -18 -3 -44 -8 -58 -11 -82 -18 -110 -21
-152 -20 -76 3 -92 32 -52 94 31 47 176 181 196 181 4 0 8 -6 8 -12z"/>
</g>
</svg>
