<?xml version="1.0" standalone="no"?>
<!DOCTYPE svg PUBLIC "-//W3C//DTD SVG 20010904//EN"
 "http://www.w3.org/TR/2001/REC-SVG-20010904/DTD/svg10.dtd">
<svg version="1.0" xmlns="http://www.w3.org/2000/svg"
 width="491.000000pt" height="494.000000pt" viewBox="0 0 491.000000 494.000000"
 preserveAspectRatio="xMidYMid meet">

<g transform="translate(0.000000,494.000000) scale(0.100000,-0.100000)"
fill="#000000" stroke="none">
<path d="M2310 4919 c-58 -4 -123 -10 -145 -14 -22 -3 -67 -10 -100 -15 -103
-15 -118 -18 -260 -56 -11 -3 -29 -7 -41 -9 -11 -1 -29 -7 -40 -13 -25 -12
-83 -32 -113 -38 -13 -3 -33 -11 -45 -19 -11 -8 -29 -15 -38 -15 -19 0 -279
-127 -288 -140 -3 -4 -21 -15 -40 -25 -50 -25 -174 -107 -183 -122 -4 -7 -14
-13 -22 -13 -8 0 -18 -6 -22 -13 -4 -8 -15 -18 -24 -23 -90 -51 -387 -356
-482 -494 -86 -125 -130 -194 -154 -240 -65 -121 -73 -137 -93 -185 -11 -27
-25 -58 -31 -68 -19 -34 -108 -295 -102 -300 3 -3 -2 -27 -11 -54 -83 -252
-97 -740 -31 -1043 8 -36 17 -81 20 -100 3 -19 10 -48 15 -65 5 -16 18 -59 29
-95 41 -137 65 -198 144 -365 34 -71 66 -132 70 -133 4 -2 19 -27 33 -55 15
-28 32 -57 40 -65 8 -7 14 -17 14 -21 0 -4 17 -30 37 -58 21 -28 45 -61 53
-73 8 -12 29 -37 45 -55 17 -18 40 -47 53 -64 27 -34 186 -197 247 -252 50
-44 187 -147 231 -174 18 -11 42 -27 52 -35 9 -8 38 -26 62 -39 25 -13 52 -29
60 -35 21 -16 190 -99 275 -134 95 -40 248 -88 380 -118 20 -5 196 -37 270
-49 61 -10 421 -13 495 -4 149 18 204 26 250 36 14 3 39 7 55 10 17 2 37 7 45
10 14 5 25 8 70 16 9 2 21 7 28 11 7 4 23 9 35 11 26 4 63 16 132 43 28 11 66
26 85 33 44 15 277 130 348 170 28 17 52 34 52 40 0 5 6 9 13 9 11 0 90 52
107 70 3 3 24 18 48 34 23 16 58 44 78 62 19 19 38 34 42 34 7 0 250 247 277
280 95 118 225 308 225 329 0 6 4 11 9 11 5 0 20 24 34 53 15 28 35 68 45 87
67 122 186 467 208 605 3 17 7 39 9 50 52 286 43 698 -21 970 -24 105 -62 231
-95 315 -17 41 -32 82 -34 90 -6 25 -124 263 -148 298 -12 18 -50 76 -85 129
-63 97 -107 156 -149 203 -12 14 -32 36 -43 50 -28 33 -181 189 -213 216 -115
99 -312 244 -332 244 -4 0 -20 11 -37 25 -16 14 -35 25 -43 25 -7 0 -18 7 -25
15 -7 8 -16 12 -21 9 -5 -3 -9 -1 -9 4 0 9 -111 62 -130 62 -5 0 -10 4 -10 9
0 5 -17 15 -37 22 -21 6 -42 15 -48 19 -5 3 -30 12 -55 19 -25 7 -65 22 -89
33 -39 17 -231 70 -301 83 -167 29 -223 36 -330 41 -69 3 -141 6 -160 7 -19 1
-82 -1 -140 -4z m335 -298 c0 -1 23 -4 51 -6 105 -8 366 -66 391 -87 7 -6 13
-7 13 -3 0 4 6 3 13 -3 6 -5 46 -20 87 -32 102 -30 351 -154 437 -217 17 -13
36 -23 41 -23 6 0 12 -4 14 -8 2 -4 40 -36 85 -70 45 -34 133 -113 195 -175
95 -94 135 -140 220 -252 4 -5 18 -23 31 -40 13 -16 30 -41 37 -54 7 -14 17
-30 22 -35 18 -20 57 -90 106 -191 48 -98 54 -113 93 -225 35 -99 40 -115 44
-130 2 -8 9 -31 15 -50 11 -38 47 -221 55 -285 23 -178 14 -468 -21 -650 -42
-225 -163 -552 -256 -692 -15 -23 -28 -44 -28 -48 0 -9 -107 -161 -158 -225
-45 -56 -239 -260 -247 -260 -3 0 -13 -8 -23 -18 -10 -9 -32 -28 -50 -42 -18
-14 -44 -35 -58 -48 -14 -12 -38 -30 -52 -40 -15 -9 -31 -20 -37 -25 -23 -18
-88 -58 -118 -73 -17 -9 -34 -20 -37 -24 -8 -12 -207 -109 -213 -104 -3 3 -21
-4 -41 -14 -20 -11 -76 -32 -124 -47 -48 -15 -95 -31 -104 -36 -10 -5 -29 -9
-44 -9 -14 0 -33 -4 -42 -9 -9 -5 -35 -11 -57 -15 -22 -3 -67 -10 -100 -16
-174 -32 -487 -31 -650 1 -27 5 -66 12 -85 15 -36 5 -44 7 -120 23 -54 12
-261 81 -316 106 -95 43 -183 87 -239 120 -33 19 -69 39 -80 44 -11 5 -29 18
-39 30 -11 11 -24 21 -30 21 -6 0 -56 36 -111 81 -139 112 -276 253 -402 414
-21 26 -91 131 -113 170 -36 61 -135 261 -158 320 -32 78 -93 277 -88 283 3 2
1 12 -4 22 -10 18 -24 99 -41 229 -18 145 -10 459 16 606 2 11 6 36 9 55 15
107 153 511 190 560 7 8 21 33 31 55 18 35 39 72 83 140 7 11 21 34 31 50 11
17 26 39 35 50 9 11 29 38 46 60 60 80 198 227 276 295 45 38 178 144 200 157
10 7 36 24 57 38 21 13 52 32 70 41 17 9 34 20 37 24 7 11 208 110 222 110 7
0 27 7 43 16 17 9 44 20 60 24 17 5 54 17 83 28 75 29 302 77 406 87 33 3 61
7 63 9 3 3 378 0 378 -3z"/>
<path d="M2936 3479 c-84 -46 -127 -112 -128 -196 0 -87 10 -117 56 -167 73
-80 167 -99 266 -53 64 29 78 44 113 110 33 62 30 156 -7 211 -55 82 -97 107
-191 112 -57 4 -77 1 -109 -17z"/>
<path d="M1735 3446 c-60 -28 -103 -69 -123 -116 -45 -108 -9 -223 92 -290 45
-30 58 -34 116 -33 95 0 160 37 210 118 29 48 34 164 8 210 -29 51 -63 84
-112 106 -73 32 -132 34 -191 5z"/>
<path d="M3644 2452 l-51 -3 -7 -97 c-4 -53 -16 -132 -27 -176 -10 -43 -19
-86 -19 -94 0 -9 -9 -34 -19 -56 -11 -23 -33 -72 -51 -109 -41 -91 -137 -224
-225 -313 -121 -122 -325 -247 -440 -269 -11 -2 -45 -11 -75 -19 -95 -26 -141
-31 -280 -31 -163 1 -212 8 -328 46 -35 12 -76 28 -91 35 -14 8 -31 14 -38 14
-13 0 -36 12 -132 69 -64 38 -194 143 -231 186 -14 16 -38 43 -53 60 -15 16
-41 50 -57 75 -16 25 -34 50 -39 56 -17 20 -74 138 -82 169 -4 17 -17 55 -28
85 -11 29 -23 74 -26 98 -3 25 -7 47 -9 51 -2 3 -7 37 -10 75 -4 38 -9 73 -12
77 -5 9 -260 3 -276 -7 -26 -16 30 -350 73 -435 10 -20 16 -39 13 -42 -13 -13
150 -304 192 -342 6 -5 26 -30 45 -55 51 -67 162 -174 234 -225 16 -11 43 -31
61 -45 35 -28 85 -57 95 -56 4 1 15 -6 25 -15 11 -9 39 -24 64 -33 25 -10 54
-23 65 -30 46 -29 195 -69 361 -97 73 -11 271 -14 345 -5 80 11 174 28 194 36
42 16 151 52 180 59 33 9 177 79 185 91 3 4 24 17 48 29 23 12 42 26 42 31 0
6 5 10 10 10 21 0 68 38 175 140 67 63 205 231 205 249 0 5 6 13 13 19 37 31
158 313 178 417 35 171 51 373 32 376 -18 3 -182 4 -229 1z"/>
</g>
</svg>
